<svg width="1920" height="1080" viewBox="0 0 1920 1080" xmlns="http://www.w3.org/2000/svg"><rect width="1920" height="1080" fill="#fefafa"/><path d="M1420,590.9999999999999C1425.3333333333333,669.2010830997536,1400.0297194118534,690.146294960857,1336.71999940354,763.6735431034392C1273.4102793952266,837.2007912460215,1140.095013184042,998.4905074222339,1040.1416799501187,1032.1634888554936C940.1883467161954,1065.8364702887534,799.1314793165901,1020.7538357628212,737.0000000000001,965.7114317029974C674.8685206834101,910.6690276431736,672.8664961403365,793.012480529809,667.3528040505788,701.909064496551C661.8391119608211,610.805648463293,671.9702726256577,500.43711590519894,703.917847461454,419.09093550344915C735.8654222972503,337.74475510169935,798.6676143172463,256.4462227825907,859.038253065357,213.83198208605228C919.4088918134678,171.21774138951383,991.8613888937547,149.9663142544077,1066.1416799501185,163.40549132421847C1140.4219710064824,176.84466839402924,1245.7436127285598,223.20129305895335,1304.71999940354,294.46704450491694C1363.6963860785202,365.73279595088053,1414.6666666666667,512.7989169002461,1420,590.9999999999999C1425.3333333333333,669.2010830997536,1400.0297194118534,690.146294960857,1336.71999940354,763.6735431034392" fill="#ec5b53"/></svg>